<svg xmlns="http://www.w3.org/2000/svg" xmlns:xlink="http://www.w3.org/1999/xlink" width="1920" zoomAndPan="magnify" viewBox="0 0 1440 809.999993" height="1080" preserveAspectRatio="xMidYMid meet" version="1.0"><defs><filter x="0%" y="0%" width="100%" height="100%" id="c30e8fd972"><feColorMatrix values="0 0 0 0 1 0 0 0 0 1 0 0 0 0 1 0 0 0 1 0" color-interpolation-filters="sRGB"/></filter><mask id="666ba04576"><g filter="url(#c30e8fd972)"><rect x="-144" width="1728" fill="#000000" y="-80.999999" height="971.999992" fill-opacity="0.5176"/></g></mask><clipPath id="3b76f1bd10"><path d="M 0 0 L 512.25 0 L 512.25 512.25 L 0 512.25 Z M 0 0 " clip-rule="nonzero"/></clipPath><clipPath id="6e6487337e"><rect x="0" width="513" y="0" height="513"/></clipPath><mask id="e3f9e34bb9"><g filter="url(#c30e8fd972)"><rect x="-144" width="1728" fill="#000000" y="-80.999999" height="971.999992" fill-opacity="0.5176"/></g></mask><clipPath id="b404321bad"><path d="M 0.25 0 L 512.5 0 L 512.5 512.25 L 0.25 512.25 Z M 0.25 0 " clip-rule="nonzero"/></clipPath><clipPath id="fcb7381b2b"><rect x="0" width="513" y="0" height="513"/></clipPath><mask id="284283e15b"><g filter="url(#c30e8fd972)"><rect x="-144" width="1728" fill="#000000" y="-80.999999" height="971.999992" fill-opacity="0.5176"/></g></mask><clipPath id="b5b06ce1fd"><path d="M 0 0.25 L 512.25 0.25 L 512.25 298 L 0 298 Z M 0 0.25 " clip-rule="nonzero"/></clipPath><clipPath id="1bf0e4b31c"><rect x="0" width="513" y="0" height="298"/></clipPath><mask id="526d823050"><g filter="url(#c30e8fd972)"><rect x="-144" width="1728" fill="#000000" y="-80.999999" height="971.999992" fill-opacity="0.5176"/></g></mask><clipPath id="e936ec28f2"><path d="M 0.25 0.25 L 512.5 0.25 L 512.5 298 L 0.25 298 Z M 0.25 0.25 " clip-rule="nonzero"/></clipPath><clipPath id="e9f92c9008"><rect x="0" width="513" y="0" height="298"/></clipPath><mask id="cdf27a3cc0"><g filter="url(#c30e8fd972)"><rect x="-144" width="1728" fill="#000000" y="-80.999999" height="971.999992" fill-opacity="0.5176"/></g></mask><clipPath id="870d4d6242"><path d="M 0.5 0 L 416 0 L 416 512.25 L 0.5 512.25 Z M 0.5 0 " clip-rule="nonzero"/></clipPath><clipPath id="4951dd00f7"><rect x="0" width="416" y="0" height="513"/></clipPath><mask id="93ba98dd81"><g filter="url(#c30e8fd972)"><rect x="-144" width="1728" fill="#000000" y="-80.999999" height="971.999992" fill-opacity="0.5176"/></g></mask><clipPath id="f926547802"><path d="M 0.5 0.25 L 416 0.25 L 416 298 L 0.5 298 Z M 0.5 0.25 " clip-rule="nonzero"/></clipPath><clipPath id="47bc4b7160"><rect x="0" width="416" y="0" height="298"/></clipPath></defs><rect x="-144" width="1728" fill="#ffffff" y="-80.999999" height="971.999992" fill-opacity="1"/><rect x="-144" width="1728" fill="#ffffff" y="-80.999999" height="971.999992" fill-opacity="1"/><rect x="-144" width="1728" fill="#1b232b" y="-80.999999" height="971.999992" fill-opacity="1"/><g mask="url(#666ba04576)"><g transform="matrix(1, 0, 0, 1, 0, 0.000000000000039746)"><g clip-path="url(#6e6487337e)"><g clip-path="url(#3b76f1bd10)"><path fill="#404040" d="M 256.363281 512.25 L 255.886719 512.25 L 255.886719 0 L 256.363281 0 Z M 237.390625 0 L 236.914062 0 L 236.914062 512.25 L 237.390625 512.25 Z M 218.417969 0 L 217.941406 0 L 217.941406 512.25 L 218.417969 512.25 Z M 199.445312 0 L 198.972656 0 L 198.972656 512.25 L 199.445312 512.25 Z M 180.472656 0 L 180 0 L 180 512.25 L 180.472656 512.25 Z M 161.5 0 L 161.027344 0 L 161.027344 512.25 L 161.5 512.25 Z M 142.527344 0 L 142.054688 0 L 142.054688 512.25 L 142.527344 512.25 Z M 123.558594 0 L 123.082031 0 L 123.082031 512.25 L 123.558594 512.25 Z M 104.585938 0 L 104.109375 0 L 104.109375 512.25 L 104.585938 512.25 Z M 85.613281 0 L 85.136719 0 L 85.136719 512.25 L 85.613281 512.25 Z M 66.640625 0 L 66.164062 0 L 66.164062 512.25 L 66.640625 512.25 Z M 47.667969 0 L 47.195312 0 L 47.195312 512.25 L 47.667969 512.25 Z M 28.695312 0 L 28.222656 0 L 28.222656 512.25 L 28.695312 512.25 Z M 9.722656 0 L 9.25 0 L 9.25 512.25 L 9.722656 512.25 Z M 503 0 L 502.527344 0 L 502.527344 512.25 L 503 512.25 Z M 484.027344 0 L 483.554688 0 L 483.554688 512.25 L 484.027344 512.25 Z M 465.054688 0 L 464.582031 0 L 464.582031 512.25 L 465.054688 512.25 Z M 446.085938 0 L 445.609375 0 L 445.609375 512.25 L 446.085938 512.25 Z M 427.113281 0 L 426.636719 0 L 426.636719 512.25 L 427.113281 512.25 Z M 408.140625 0 L 407.664062 0 L 407.664062 512.25 L 408.140625 512.25 Z M 389.167969 0 L 388.691406 0 L 388.691406 512.25 L 389.167969 512.25 Z M 370.195312 0 L 369.722656 0 L 369.722656 512.25 L 370.195312 512.25 Z M 351.222656 0 L 350.75 0 L 350.75 512.25 L 351.222656 512.25 Z M 332.25 0 L 331.777344 0 L 331.777344 512.25 L 332.25 512.25 Z M 313.277344 0 L 312.804688 0 L 312.804688 512.25 L 313.277344 512.25 Z M 294.308594 0 L 293.832031 0 L 293.832031 512.25 L 294.308594 512.25 Z M 275.335938 0 L 274.859375 0 L 274.859375 512.25 L 275.335938 512.25 Z M 512.25 255.886719 L 0 255.886719 L 0 256.363281 L 512.25 256.363281 Z M 512.25 236.914062 L 0 236.914062 L 0 237.390625 L 512.25 237.390625 Z M 512.25 217.941406 L 0 217.941406 L 0 218.417969 L 512.25 218.417969 Z M 512.25 198.972656 L 0 198.972656 L 0 199.445312 L 512.25 199.445312 Z M 512.25 180 L 0 180 L 0 180.472656 L 512.25 180.472656 Z M 512.25 161.027344 L 0 161.027344 L 0 161.5 L 512.25 161.5 Z M 512.25 142.054688 L 0 142.054688 L 0 142.527344 L 512.25 142.527344 Z M 512.25 123.082031 L 0 123.082031 L 0 123.558594 L 512.25 123.558594 Z M 512.25 104.109375 L 0 104.109375 L 0 104.585938 L 512.25 104.585938 Z M 512.25 85.136719 L 0 85.136719 L 0 85.613281 L 512.25 85.613281 Z M 512.25 66.164062 L 0 66.164062 L 0 66.640625 L 512.25 66.640625 Z M 512.25 47.195312 L 0 47.195312 L 0 47.667969 L 512.25 47.667969 Z M 512.25 28.222656 L 0 28.222656 L 0 28.695312 L 512.25 28.695312 Z M 512.25 9.25 L 0 9.25 L 0 9.722656 L 512.25 9.722656 Z M 512.25 502.527344 L 0 502.527344 L 0 503 L 512.25 503 Z M 512.25 483.554688 L 0 483.554688 L 0 484.027344 L 512.25 484.027344 Z M 512.25 464.582031 L 0 464.582031 L 0 465.054688 L 512.25 465.054688 Z M 512.25 445.609375 L 0 445.609375 L 0 446.085938 L 512.25 446.085938 Z M 512.25 426.636719 L 0 426.636719 L 0 427.113281 L 512.25 427.113281 Z M 512.25 407.664062 L 0 407.664062 L 0 408.140625 L 512.25 408.140625 Z M 512.25 388.691406 L 0 388.691406 L 0 389.167969 L 512.25 389.167969 Z M 512.25 369.722656 L 0 369.722656 L 0 370.195312 L 512.25 370.195312 Z M 512.25 350.75 L 0 350.75 L 0 351.222656 L 512.25 351.222656 Z M 512.25 331.777344 L 0 331.777344 L 0 332.25 L 512.25 332.25 Z M 512.25 312.804688 L 0 312.804688 L 0 313.277344 L 512.25 313.277344 Z M 512.25 293.832031 L 0 293.832031 L 0 294.308594 L 512.25 294.308594 Z M 512.25 274.859375 L 0 274.859375 L 0 275.335938 L 512.25 275.335938 Z M 512.25 274.859375 " fill-opacity="1" fill-rule="nonzero"/></g></g></g></g><g mask="url(#e3f9e34bb9)"><g transform="matrix(1, 0, 0, 1, 512, 0.000000000000039746)"><g clip-path="url(#fcb7381b2b)"><g clip-path="url(#b404321bad)"><path fill="#404040" d="M 256.613281 512.25 L 256.136719 512.25 L 256.136719 0 L 256.613281 0 Z M 237.640625 0 L 237.164062 0 L 237.164062 512.25 L 237.640625 512.25 Z M 218.667969 0 L 218.191406 0 L 218.191406 512.25 L 218.667969 512.25 Z M 199.695312 0 L 199.222656 0 L 199.222656 512.25 L 199.695312 512.25 Z M 180.722656 0 L 180.25 0 L 180.25 512.25 L 180.722656 512.25 Z M 161.75 0 L 161.277344 0 L 161.277344 512.25 L 161.75 512.25 Z M 142.777344 0 L 142.304688 0 L 142.304688 512.25 L 142.777344 512.25 Z M 123.808594 0 L 123.332031 0 L 123.332031 512.25 L 123.808594 512.25 Z M 104.835938 0 L 104.359375 0 L 104.359375 512.25 L 104.835938 512.25 Z M 85.863281 0 L 85.386719 0 L 85.386719 512.25 L 85.863281 512.25 Z M 66.890625 0 L 66.414062 0 L 66.414062 512.25 L 66.890625 512.25 Z M 47.917969 0 L 47.445312 0 L 47.445312 512.25 L 47.917969 512.25 Z M 28.945312 0 L 28.472656 0 L 28.472656 512.25 L 28.945312 512.25 Z M 9.972656 0 L 9.5 0 L 9.5 512.25 L 9.972656 512.25 Z M 503.25 0 L 502.777344 0 L 502.777344 512.25 L 503.25 512.25 Z M 484.277344 0 L 483.804688 0 L 483.804688 512.25 L 484.277344 512.25 Z M 465.304688 0 L 464.832031 0 L 464.832031 512.25 L 465.304688 512.25 Z M 446.335938 0 L 445.859375 0 L 445.859375 512.25 L 446.335938 512.25 Z M 427.363281 0 L 426.886719 0 L 426.886719 512.25 L 427.363281 512.25 Z M 408.390625 0 L 407.914062 0 L 407.914062 512.25 L 408.390625 512.25 Z M 389.417969 0 L 388.941406 0 L 388.941406 512.25 L 389.417969 512.25 Z M 370.445312 0 L 369.972656 0 L 369.972656 512.25 L 370.445312 512.25 Z M 351.472656 0 L 351 0 L 351 512.25 L 351.472656 512.25 Z M 332.5 0 L 332.027344 0 L 332.027344 512.25 L 332.5 512.25 Z M 313.527344 0 L 313.054688 0 L 313.054688 512.25 L 313.527344 512.25 Z M 294.558594 0 L 294.082031 0 L 294.082031 512.25 L 294.558594 512.25 Z M 275.585938 0 L 275.109375 0 L 275.109375 512.25 L 275.585938 512.25 Z M 512.5 255.886719 L 0.25 255.886719 L 0.25 256.363281 L 512.5 256.363281 Z M 512.5 236.914062 L 0.25 236.914062 L 0.25 237.390625 L 512.5 237.390625 Z M 512.5 217.941406 L 0.25 217.941406 L 0.25 218.417969 L 512.5 218.417969 Z M 512.5 198.972656 L 0.25 198.972656 L 0.25 199.445312 L 512.5 199.445312 Z M 512.5 180 L 0.25 180 L 0.25 180.472656 L 512.5 180.472656 Z M 512.5 161.027344 L 0.25 161.027344 L 0.25 161.5 L 512.5 161.5 Z M 512.5 142.054688 L 0.25 142.054688 L 0.25 142.527344 L 512.5 142.527344 Z M 512.5 123.082031 L 0.25 123.082031 L 0.25 123.558594 L 512.5 123.558594 Z M 512.5 104.109375 L 0.25 104.109375 L 0.25 104.585938 L 512.5 104.585938 Z M 512.5 85.136719 L 0.25 85.136719 L 0.25 85.613281 L 512.5 85.613281 Z M 512.5 66.164062 L 0.25 66.164062 L 0.25 66.640625 L 512.5 66.640625 Z M 512.5 47.195312 L 0.25 47.195312 L 0.25 47.667969 L 512.5 47.667969 Z M 512.5 28.222656 L 0.25 28.222656 L 0.25 28.695312 L 512.5 28.695312 Z M 512.5 9.25 L 0.25 9.25 L 0.25 9.722656 L 512.5 9.722656 Z M 512.5 502.527344 L 0.25 502.527344 L 0.25 503 L 512.5 503 Z M 512.5 483.554688 L 0.25 483.554688 L 0.25 484.027344 L 512.5 484.027344 Z M 512.5 464.582031 L 0.25 464.582031 L 0.25 465.054688 L 512.5 465.054688 Z M 512.5 445.609375 L 0.25 445.609375 L 0.25 446.085938 L 512.5 446.085938 Z M 512.5 426.636719 L 0.25 426.636719 L 0.25 427.113281 L 512.5 427.113281 Z M 512.5 407.664062 L 0.25 407.664062 L 0.25 408.140625 L 512.5 408.140625 Z M 512.5 388.691406 L 0.25 388.691406 L 0.25 389.167969 L 512.5 389.167969 Z M 512.5 369.722656 L 0.25 369.722656 L 0.25 370.195312 L 512.5 370.195312 Z M 512.5 350.75 L 0.25 350.75 L 0.25 351.222656 L 512.5 351.222656 Z M 512.5 331.777344 L 0.25 331.777344 L 0.25 332.25 L 512.5 332.25 Z M 512.5 312.804688 L 0.25 312.804688 L 0.25 313.277344 L 512.5 313.277344 Z M 512.5 293.832031 L 0.25 293.832031 L 0.25 294.308594 L 512.5 294.308594 Z M 512.5 274.859375 L 0.25 274.859375 L 0.25 275.335938 L 512.5 275.335938 Z M 512.5 274.859375 " fill-opacity="1" fill-rule="nonzero"/></g></g></g></g><g mask="url(#284283e15b)"><g transform="matrix(1, 0, 0, 1, 0, 512)"><g clip-path="url(#1bf0e4b31c)"><g clip-path="url(#b5b06ce1fd)"><path fill="#404040" d="M 256.363281 512.5 L 255.886719 512.5 L 255.886719 0.25 L 256.363281 0.25 Z M 237.390625 0.25 L 236.914062 0.25 L 236.914062 512.5 L 237.390625 512.5 Z M 218.417969 0.25 L 217.941406 0.25 L 217.941406 512.5 L 218.417969 512.5 Z M 199.445312 0.25 L 198.972656 0.25 L 198.972656 512.5 L 199.445312 512.5 Z M 180.472656 0.25 L 180 0.25 L 180 512.5 L 180.472656 512.5 Z M 161.5 0.25 L 161.027344 0.25 L 161.027344 512.5 L 161.5 512.5 Z M 142.527344 0.25 L 142.054688 0.25 L 142.054688 512.5 L 142.527344 512.5 Z M 123.558594 0.25 L 123.082031 0.25 L 123.082031 512.5 L 123.558594 512.5 Z M 104.585938 0.25 L 104.109375 0.25 L 104.109375 512.5 L 104.585938 512.5 Z M 85.613281 0.25 L 85.136719 0.25 L 85.136719 512.5 L 85.613281 512.5 Z M 66.640625 0.25 L 66.164062 0.25 L 66.164062 512.5 L 66.640625 512.5 Z M 47.667969 0.25 L 47.195312 0.25 L 47.195312 512.5 L 47.667969 512.5 Z M 28.695312 0.25 L 28.222656 0.25 L 28.222656 512.5 L 28.695312 512.5 Z M 9.722656 0.25 L 9.25 0.25 L 9.25 512.5 L 9.722656 512.5 Z M 503 0.25 L 502.527344 0.25 L 502.527344 512.5 L 503 512.5 Z M 484.027344 0.25 L 483.554688 0.25 L 483.554688 512.5 L 484.027344 512.5 Z M 465.054688 0.25 L 464.582031 0.25 L 464.582031 512.5 L 465.054688 512.5 Z M 446.085938 0.25 L 445.609375 0.25 L 445.609375 512.5 L 446.085938 512.5 Z M 427.113281 0.25 L 426.636719 0.25 L 426.636719 512.5 L 427.113281 512.5 Z M 408.140625 0.25 L 407.664062 0.25 L 407.664062 512.5 L 408.140625 512.5 Z M 389.167969 0.25 L 388.691406 0.25 L 388.691406 512.5 L 389.167969 512.5 Z M 370.195312 0.25 L 369.722656 0.25 L 369.722656 512.5 L 370.195312 512.5 Z M 351.222656 0.25 L 350.75 0.25 L 350.75 512.5 L 351.222656 512.5 Z M 332.25 0.25 L 331.777344 0.25 L 331.777344 512.5 L 332.25 512.5 Z M 313.277344 0.25 L 312.804688 0.25 L 312.804688 512.5 L 313.277344 512.5 Z M 294.308594 0.25 L 293.832031 0.25 L 293.832031 512.5 L 294.308594 512.5 Z M 275.335938 0.25 L 274.859375 0.25 L 274.859375 512.5 L 275.335938 512.5 Z M 512.25 256.136719 L 0 256.136719 L 0 256.613281 L 512.25 256.613281 Z M 512.25 237.164062 L 0 237.164062 L 0 237.640625 L 512.25 237.640625 Z M 512.25 218.191406 L 0 218.191406 L 0 218.667969 L 512.25 218.667969 Z M 512.25 199.222656 L 0 199.222656 L 0 199.695312 L 512.25 199.695312 Z M 512.25 180.25 L 0 180.25 L 0 180.722656 L 512.25 180.722656 Z M 512.25 161.277344 L 0 161.277344 L 0 161.75 L 512.25 161.75 Z M 512.25 142.304688 L 0 142.304688 L 0 142.777344 L 512.25 142.777344 Z M 512.25 123.332031 L 0 123.332031 L 0 123.808594 L 512.25 123.808594 Z M 512.25 104.359375 L 0 104.359375 L 0 104.835938 L 512.25 104.835938 Z M 512.25 85.386719 L 0 85.386719 L 0 85.863281 L 512.25 85.863281 Z M 512.25 66.414062 L 0 66.414062 L 0 66.890625 L 512.25 66.890625 Z M 512.25 47.445312 L 0 47.445312 L 0 47.917969 L 512.25 47.917969 Z M 512.25 28.472656 L 0 28.472656 L 0 28.945312 L 512.25 28.945312 Z M 512.25 9.5 L 0 9.5 L 0 9.972656 L 512.25 9.972656 Z M 512.25 502.777344 L 0 502.777344 L 0 503.25 L 512.25 503.25 Z M 512.25 483.804688 L 0 483.804688 L 0 484.277344 L 512.25 484.277344 Z M 512.25 464.832031 L 0 464.832031 L 0 465.304688 L 512.25 465.304688 Z M 512.25 445.859375 L 0 445.859375 L 0 446.335938 L 512.25 446.335938 Z M 512.25 426.886719 L 0 426.886719 L 0 427.363281 L 512.25 427.363281 Z M 512.25 407.914062 L 0 407.914062 L 0 408.390625 L 512.25 408.390625 Z M 512.25 388.941406 L 0 388.941406 L 0 389.417969 L 512.25 389.417969 Z M 512.25 369.972656 L 0 369.972656 L 0 370.445312 L 512.25 370.445312 Z M 512.25 351 L 0 351 L 0 351.472656 L 512.25 351.472656 Z M 512.25 332.027344 L 0 332.027344 L 0 332.5 L 512.25 332.5 Z M 512.25 313.054688 L 0 313.054688 L 0 313.527344 L 512.25 313.527344 Z M 512.25 294.082031 L 0 294.082031 L 0 294.558594 L 512.25 294.558594 Z M 512.25 275.109375 L 0 275.109375 L 0 275.585938 L 512.25 275.585938 Z M 512.25 275.109375 " fill-opacity="1" fill-rule="nonzero"/></g></g></g></g><g mask="url(#526d823050)"><g transform="matrix(1, 0, 0, 1, 512, 512)"><g clip-path="url(#e9f92c9008)"><g clip-path="url(#e936ec28f2)"><path fill="#404040" d="M 256.613281 512.5 L 256.136719 512.5 L 256.136719 0.25 L 256.613281 0.25 Z M 237.640625 0.25 L 237.164062 0.25 L 237.164062 512.5 L 237.640625 512.5 Z M 218.667969 0.25 L 218.191406 0.25 L 218.191406 512.5 L 218.667969 512.5 Z M 199.695312 0.25 L 199.222656 0.25 L 199.222656 512.5 L 199.695312 512.5 Z M 180.722656 0.25 L 180.25 0.25 L 180.25 512.5 L 180.722656 512.5 Z M 161.75 0.25 L 161.277344 0.25 L 161.277344 512.5 L 161.75 512.5 Z M 142.777344 0.25 L 142.304688 0.25 L 142.304688 512.5 L 142.777344 512.5 Z M 123.808594 0.25 L 123.332031 0.25 L 123.332031 512.5 L 123.808594 512.5 Z M 104.835938 0.25 L 104.359375 0.25 L 104.359375 512.5 L 104.835938 512.5 Z M 85.863281 0.25 L 85.386719 0.25 L 85.386719 512.5 L 85.863281 512.5 Z M 66.890625 0.25 L 66.414062 0.25 L 66.414062 512.5 L 66.890625 512.5 Z M 47.917969 0.25 L 47.445312 0.25 L 47.445312 512.5 L 47.917969 512.5 Z M 28.945312 0.25 L 28.472656 0.25 L 28.472656 512.5 L 28.945312 512.5 Z M 9.972656 0.25 L 9.5 0.25 L 9.5 512.5 L 9.972656 512.5 Z M 503.25 0.25 L 502.777344 0.25 L 502.777344 512.5 L 503.25 512.5 Z M 484.277344 0.25 L 483.804688 0.25 L 483.804688 512.5 L 484.277344 512.5 Z M 465.304688 0.25 L 464.832031 0.25 L 464.832031 512.5 L 465.304688 512.5 Z M 446.335938 0.25 L 445.859375 0.25 L 445.859375 512.5 L 446.335938 512.5 Z M 427.363281 0.25 L 426.886719 0.25 L 426.886719 512.5 L 427.363281 512.5 Z M 408.390625 0.25 L 407.914062 0.25 L 407.914062 512.5 L 408.390625 512.5 Z M 389.417969 0.25 L 388.941406 0.25 L 388.941406 512.5 L 389.417969 512.5 Z M 370.445312 0.25 L 369.972656 0.25 L 369.972656 512.5 L 370.445312 512.5 Z M 351.472656 0.25 L 351 0.25 L 351 512.5 L 351.472656 512.5 Z M 332.5 0.25 L 332.027344 0.25 L 332.027344 512.5 L 332.5 512.5 Z M 313.527344 0.25 L 313.054688 0.25 L 313.054688 512.5 L 313.527344 512.5 Z M 294.558594 0.25 L 294.082031 0.25 L 294.082031 512.5 L 294.558594 512.5 Z M 275.585938 0.25 L 275.109375 0.25 L 275.109375 512.5 L 275.585938 512.5 Z M 512.5 256.136719 L 0.25 256.136719 L 0.25 256.613281 L 512.5 256.613281 Z M 512.5 237.164062 L 0.25 237.164062 L 0.25 237.640625 L 512.5 237.640625 Z M 512.5 218.191406 L 0.25 218.191406 L 0.25 218.667969 L 512.5 218.667969 Z M 512.5 199.222656 L 0.25 199.222656 L 0.25 199.695312 L 512.5 199.695312 Z M 512.5 180.25 L 0.25 180.25 L 0.25 180.722656 L 512.5 180.722656 Z M 512.5 161.277344 L 0.25 161.277344 L 0.25 161.75 L 512.5 161.75 Z M 512.5 142.304688 L 0.25 142.304688 L 0.25 142.777344 L 512.5 142.777344 Z M 512.5 123.332031 L 0.25 123.332031 L 0.25 123.808594 L 512.5 123.808594 Z M 512.5 104.359375 L 0.25 104.359375 L 0.25 104.835938 L 512.5 104.835938 Z M 512.5 85.386719 L 0.25 85.386719 L 0.25 85.863281 L 512.5 85.863281 Z M 512.5 66.414062 L 0.25 66.414062 L 0.25 66.890625 L 512.5 66.890625 Z M 512.5 47.445312 L 0.25 47.445312 L 0.25 47.917969 L 512.5 47.917969 Z M 512.5 28.472656 L 0.25 28.472656 L 0.25 28.945312 L 512.5 28.945312 Z M 512.5 9.5 L 0.25 9.5 L 0.25 9.972656 L 512.5 9.972656 Z M 512.5 502.777344 L 0.25 502.777344 L 0.25 503.25 L 512.5 503.25 Z M 512.5 483.804688 L 0.25 483.804688 L 0.25 484.277344 L 512.5 484.277344 Z M 512.5 464.832031 L 0.25 464.832031 L 0.25 465.304688 L 512.5 465.304688 Z M 512.5 445.859375 L 0.25 445.859375 L 0.25 446.335938 L 512.5 446.335938 Z M 512.5 426.886719 L 0.25 426.886719 L 0.25 427.363281 L 512.5 427.363281 Z M 512.5 407.914062 L 0.25 407.914062 L 0.25 408.390625 L 512.5 408.390625 Z M 512.5 388.941406 L 0.25 388.941406 L 0.25 389.417969 L 512.5 389.417969 Z M 512.5 369.972656 L 0.25 369.972656 L 0.25 370.445312 L 512.5 370.445312 Z M 512.5 351 L 0.25 351 L 0.25 351.472656 L 512.5 351.472656 Z M 512.5 332.027344 L 0.25 332.027344 L 0.25 332.5 L 512.5 332.5 Z M 512.5 313.054688 L 0.25 313.054688 L 0.25 313.527344 L 512.5 313.527344 Z M 512.5 294.082031 L 0.25 294.082031 L 0.25 294.558594 L 512.5 294.558594 Z M 512.5 275.109375 L 0.25 275.109375 L 0.25 275.585938 L 512.5 275.585938 Z M 512.5 275.109375 " fill-opacity="1" fill-rule="nonzero"/></g></g></g></g><g mask="url(#cdf27a3cc0)"><g transform="matrix(1, 0, 0, 1, 1024, 0.000000000000039746)"><g clip-path="url(#4951dd00f7)"><g clip-path="url(#870d4d6242)"><path fill="#404040" d="M 256.863281 512.25 L 256.386719 512.25 L 256.386719 0 L 256.863281 0 Z M 237.890625 0 L 237.414062 0 L 237.414062 512.25 L 237.890625 512.25 Z M 218.917969 0 L 218.441406 0 L 218.441406 512.25 L 218.917969 512.25 Z M 199.945312 0 L 199.472656 0 L 199.472656 512.25 L 199.945312 512.25 Z M 180.972656 0 L 180.5 0 L 180.5 512.25 L 180.972656 512.25 Z M 162 0 L 161.527344 0 L 161.527344 512.25 L 162 512.25 Z M 143.027344 0 L 142.554688 0 L 142.554688 512.25 L 143.027344 512.25 Z M 124.058594 0 L 123.582031 0 L 123.582031 512.25 L 124.058594 512.25 Z M 105.085938 0 L 104.609375 0 L 104.609375 512.25 L 105.085938 512.25 Z M 86.113281 0 L 85.636719 0 L 85.636719 512.25 L 86.113281 512.25 Z M 67.140625 0 L 66.664062 0 L 66.664062 512.25 L 67.140625 512.25 Z M 48.167969 0 L 47.695312 0 L 47.695312 512.25 L 48.167969 512.25 Z M 29.195312 0 L 28.722656 0 L 28.722656 512.25 L 29.195312 512.25 Z M 10.222656 0 L 9.75 0 L 9.75 512.25 L 10.222656 512.25 Z M 503.5 0 L 503.027344 0 L 503.027344 512.25 L 503.5 512.25 Z M 484.527344 0 L 484.054688 0 L 484.054688 512.25 L 484.527344 512.25 Z M 465.554688 0 L 465.082031 0 L 465.082031 512.25 L 465.554688 512.25 Z M 446.585938 0 L 446.109375 0 L 446.109375 512.25 L 446.585938 512.25 Z M 427.613281 0 L 427.136719 0 L 427.136719 512.25 L 427.613281 512.25 Z M 408.640625 0 L 408.164062 0 L 408.164062 512.25 L 408.640625 512.25 Z M 389.667969 0 L 389.191406 0 L 389.191406 512.25 L 389.667969 512.25 Z M 370.695312 0 L 370.222656 0 L 370.222656 512.25 L 370.695312 512.25 Z M 351.722656 0 L 351.25 0 L 351.25 512.25 L 351.722656 512.25 Z M 332.75 0 L 332.277344 0 L 332.277344 512.25 L 332.75 512.25 Z M 313.777344 0 L 313.304688 0 L 313.304688 512.25 L 313.777344 512.25 Z M 294.808594 0 L 294.332031 0 L 294.332031 512.25 L 294.808594 512.25 Z M 275.835938 0 L 275.359375 0 L 275.359375 512.25 L 275.835938 512.25 Z M 512.75 255.886719 L 0.5 255.886719 L 0.5 256.363281 L 512.75 256.363281 Z M 512.75 236.914062 L 0.5 236.914062 L 0.5 237.390625 L 512.75 237.390625 Z M 512.75 217.941406 L 0.5 217.941406 L 0.5 218.417969 L 512.75 218.417969 Z M 512.75 198.972656 L 0.5 198.972656 L 0.5 199.445312 L 512.75 199.445312 Z M 512.75 180 L 0.5 180 L 0.5 180.472656 L 512.75 180.472656 Z M 512.75 161.027344 L 0.5 161.027344 L 0.5 161.5 L 512.75 161.5 Z M 512.75 142.054688 L 0.5 142.054688 L 0.5 142.527344 L 512.75 142.527344 Z M 512.75 123.082031 L 0.5 123.082031 L 0.5 123.558594 L 512.75 123.558594 Z M 512.75 104.109375 L 0.5 104.109375 L 0.5 104.585938 L 512.75 104.585938 Z M 512.75 85.136719 L 0.5 85.136719 L 0.5 85.613281 L 512.75 85.613281 Z M 512.75 66.164062 L 0.5 66.164062 L 0.5 66.640625 L 512.75 66.640625 Z M 512.75 47.195312 L 0.5 47.195312 L 0.5 47.667969 L 512.75 47.667969 Z M 512.75 28.222656 L 0.5 28.222656 L 0.5 28.695312 L 512.75 28.695312 Z M 512.75 9.25 L 0.5 9.25 L 0.5 9.722656 L 512.75 9.722656 Z M 512.75 502.527344 L 0.5 502.527344 L 0.5 503 L 512.75 503 Z M 512.75 483.554688 L 0.5 483.554688 L 0.5 484.027344 L 512.75 484.027344 Z M 512.75 464.582031 L 0.5 464.582031 L 0.5 465.054688 L 512.75 465.054688 Z M 512.75 445.609375 L 0.5 445.609375 L 0.5 446.085938 L 512.75 446.085938 Z M 512.75 426.636719 L 0.5 426.636719 L 0.5 427.113281 L 512.75 427.113281 Z M 512.75 407.664062 L 0.5 407.664062 L 0.5 408.140625 L 512.75 408.140625 Z M 512.75 388.691406 L 0.5 388.691406 L 0.5 389.167969 L 512.75 389.167969 Z M 512.75 369.722656 L 0.5 369.722656 L 0.5 370.195312 L 512.75 370.195312 Z M 512.75 350.75 L 0.5 350.75 L 0.5 351.222656 L 512.75 351.222656 Z M 512.75 331.777344 L 0.5 331.777344 L 0.5 332.25 L 512.75 332.25 Z M 512.75 312.804688 L 0.5 312.804688 L 0.5 313.277344 L 512.75 313.277344 Z M 512.75 293.832031 L 0.5 293.832031 L 0.5 294.308594 L 512.75 294.308594 Z M 512.75 274.859375 L 0.5 274.859375 L 0.5 275.335938 L 512.75 275.335938 Z M 512.75 274.859375 " fill-opacity="1" fill-rule="nonzero"/></g></g></g></g><g mask="url(#93ba98dd81)"><g transform="matrix(1, 0, 0, 1, 1024, 512)"><g clip-path="url(#47bc4b7160)"><g clip-path="url(#f926547802)"><path fill="#404040" d="M 256.863281 512.5 L 256.386719 512.5 L 256.386719 0.25 L 256.863281 0.25 Z M 237.890625 0.25 L 237.414062 0.25 L 237.414062 512.5 L 237.890625 512.5 Z M 218.917969 0.25 L 218.441406 0.25 L 218.441406 512.5 L 218.917969 512.5 Z M 199.945312 0.25 L 199.472656 0.25 L 199.472656 512.5 L 199.945312 512.5 Z M 180.972656 0.25 L 180.5 0.25 L 180.5 512.5 L 180.972656 512.5 Z M 162 0.25 L 161.527344 0.25 L 161.527344 512.5 L 162 512.5 Z M 143.027344 0.25 L 142.554688 0.25 L 142.554688 512.5 L 143.027344 512.5 Z M 124.058594 0.25 L 123.582031 0.25 L 123.582031 512.5 L 124.058594 512.5 Z M 105.085938 0.25 L 104.609375 0.25 L 104.609375 512.5 L 105.085938 512.5 Z M 86.113281 0.25 L 85.636719 0.25 L 85.636719 512.5 L 86.113281 512.5 Z M 67.140625 0.25 L 66.664062 0.25 L 66.664062 512.5 L 67.140625 512.5 Z M 48.167969 0.25 L 47.695312 0.25 L 47.695312 512.5 L 48.167969 512.5 Z M 29.195312 0.25 L 28.722656 0.25 L 28.722656 512.5 L 29.195312 512.5 Z M 10.222656 0.25 L 9.75 0.25 L 9.75 512.5 L 10.222656 512.5 Z M 503.5 0.25 L 503.027344 0.25 L 503.027344 512.5 L 503.5 512.5 Z M 484.527344 0.25 L 484.054688 0.25 L 484.054688 512.5 L 484.527344 512.5 Z M 465.554688 0.25 L 465.082031 0.25 L 465.082031 512.5 L 465.554688 512.5 Z M 446.585938 0.25 L 446.109375 0.25 L 446.109375 512.5 L 446.585938 512.5 Z M 427.613281 0.25 L 427.136719 0.25 L 427.136719 512.5 L 427.613281 512.5 Z M 408.640625 0.25 L 408.164062 0.25 L 408.164062 512.5 L 408.640625 512.5 Z M 389.667969 0.25 L 389.191406 0.25 L 389.191406 512.5 L 389.667969 512.5 Z M 370.695312 0.25 L 370.222656 0.25 L 370.222656 512.5 L 370.695312 512.5 Z M 351.722656 0.25 L 351.25 0.25 L 351.25 512.5 L 351.722656 512.5 Z M 332.75 0.25 L 332.277344 0.25 L 332.277344 512.5 L 332.75 512.5 Z M 313.777344 0.25 L 313.304688 0.25 L 313.304688 512.5 L 313.777344 512.5 Z M 294.808594 0.25 L 294.332031 0.25 L 294.332031 512.5 L 294.808594 512.5 Z M 275.835938 0.25 L 275.359375 0.25 L 275.359375 512.5 L 275.835938 512.5 Z M 512.75 256.136719 L 0.5 256.136719 L 0.5 256.613281 L 512.75 256.613281 Z M 512.75 237.164062 L 0.5 237.164062 L 0.5 237.640625 L 512.75 237.640625 Z M 512.75 218.191406 L 0.5 218.191406 L 0.5 218.667969 L 512.75 218.667969 Z M 512.75 199.222656 L 0.5 199.222656 L 0.5 199.695312 L 512.75 199.695312 Z M 512.75 180.25 L 0.5 180.25 L 0.5 180.722656 L 512.75 180.722656 Z M 512.75 161.277344 L 0.5 161.277344 L 0.5 161.75 L 512.75 161.75 Z M 512.75 142.304688 L 0.5 142.304688 L 0.5 142.777344 L 512.75 142.777344 Z M 512.75 123.332031 L 0.5 123.332031 L 0.5 123.808594 L 512.75 123.808594 Z M 512.75 104.359375 L 0.5 104.359375 L 0.5 104.835938 L 512.75 104.835938 Z M 512.75 85.386719 L 0.5 85.386719 L 0.5 85.863281 L 512.75 85.863281 Z M 512.75 66.414062 L 0.5 66.414062 L 0.5 66.890625 L 512.75 66.890625 Z M 512.75 47.445312 L 0.5 47.445312 L 0.5 47.917969 L 512.75 47.917969 Z M 512.75 28.472656 L 0.5 28.472656 L 0.5 28.945312 L 512.75 28.945312 Z M 512.75 9.5 L 0.5 9.5 L 0.5 9.972656 L 512.75 9.972656 Z M 512.75 502.777344 L 0.5 502.777344 L 0.5 503.25 L 512.75 503.25 Z M 512.75 483.804688 L 0.5 483.804688 L 0.5 484.277344 L 512.75 484.277344 Z M 512.75 464.832031 L 0.5 464.832031 L 0.5 465.304688 L 512.75 465.304688 Z M 512.75 445.859375 L 0.5 445.859375 L 0.5 446.335938 L 512.75 446.335938 Z M 512.75 426.886719 L 0.5 426.886719 L 0.5 427.363281 L 512.75 427.363281 Z M 512.75 407.914062 L 0.5 407.914062 L 0.5 408.390625 L 512.75 408.390625 Z M 512.75 388.941406 L 0.5 388.941406 L 0.5 389.417969 L 512.75 389.417969 Z M 512.75 369.972656 L 0.5 369.972656 L 0.5 370.445312 L 512.75 370.445312 Z M 512.75 351 L 0.5 351 L 0.5 351.472656 L 512.75 351.472656 Z M 512.75 332.027344 L 0.5 332.027344 L 0.5 332.5 L 512.75 332.5 Z M 512.75 313.054688 L 0.5 313.054688 L 0.5 313.527344 L 512.75 313.527344 Z M 512.75 294.082031 L 0.5 294.082031 L 0.5 294.558594 L 512.75 294.558594 Z M 512.75 275.109375 L 0.5 275.109375 L 0.5 275.585938 L 512.75 275.585938 Z M 512.75 275.109375 " fill-opacity="1" fill-rule="nonzero"/></g></g></g></g></svg>