<svg xmlns="http://www.w3.org/2000/svg" xmlns:xlink="http://www.w3.org/1999/xlink" width="1080" zoomAndPan="magnify" viewBox="0 0 810 809.999993" height="1080" preserveAspectRatio="xMidYMid meet" version="1.0"><defs><clipPath id="28ca26dd91"><path d="M 121.652344 234.324219 L 688.347656 234.324219 L 688.347656 589 L 121.652344 589 Z M 121.652344 234.324219 " clip-rule="nonzero"/></clipPath><clipPath id="8ccfb5278c"><path d="M 120.625 191.441406 L 689.542969 191.441406 L 689.542969 618.558594 L 120.625 618.558594 Z M 120.625 191.441406 " clip-rule="nonzero"/></clipPath></defs><path fill="#0f1819" d="M 644.425781 617.53125 L 312.714844 617.53125 L 312.714844 589.085938 L 644.425781 589.085938 Z M 165.574219 589 L 121.652344 589 L 121.652344 617.445312 L 165.488281 617.445312 Z M 688.519531 589 L 644.425781 589 L 644.425781 617.445312 L 688.519531 617.445312 Z M 688.519531 589 " fill-opacity="1" fill-rule="nonzero"/><path fill="#0f1819" d="M 312.714844 617.53125 L 165.574219 617.53125 L 165.574219 589.085938 L 312.800781 589.085938 Z M 688.519531 192.46875 L 121.652344 192.46875 L 121.652344 234.324219 L 688.519531 234.324219 Z M 688.519531 192.46875 " fill-opacity="1" fill-rule="nonzero"/><g clip-path="url(#28ca26dd91)"><path fill="#1b232b" d="M 120.625 191.441406 L 689.542969 191.441406 L 689.542969 618.558594 L 120.625 618.558594 Z M 120.625 191.441406 " fill-opacity="1" fill-rule="nonzero"/></g><g clip-path="url(#8ccfb5278c)"><path fill="#00b9ff" d="M 688.519531 191.445312 L 121.652344 191.445312 C 121.140625 191.445312 120.625 191.957031 120.625 192.46875 L 120.625 617.445312 C 120.625 618.042969 121.140625 618.472656 121.652344 618.472656 L 688.519531 618.472656 C 689.117188 618.472656 689.542969 617.957031 689.542969 617.445312 L 689.542969 192.46875 C 689.542969 191.957031 689.117188 191.445312 688.519531 191.445312 Z M 644.425781 587.976562 L 122.761719 587.976562 L 122.761719 235.351562 L 687.492188 235.351562 L 687.492188 587.976562 Z M 687.492188 193.578125 L 687.492188 233.300781 L 122.761719 233.300781 L 122.761719 193.578125 Z M 122.761719 590.109375 L 164.546875 590.109375 L 164.546875 616.507812 L 122.761719 616.507812 Z M 166.597656 616.421875 L 166.597656 590.027344 L 311.691406 590.027344 L 311.691406 616.421875 Z M 313.828125 616.421875 L 313.828125 590.027344 L 643.402344 590.027344 L 643.402344 616.421875 Z M 687.492188 616.421875 L 645.539062 616.421875 L 645.539062 590.027344 L 687.492188 590.027344 Z M 135.835938 222.878906 L 143.441406 214.507812 L 135.835938 206.136719 C 135.410156 205.710938 135.496094 205.027344 135.921875 204.683594 C 136.347656 204.257812 137.03125 204.34375 137.375 204.769531 L 144.808594 212.96875 L 152.242188 204.769531 C 152.671875 204.34375 153.269531 204.34375 153.695312 204.683594 C 154.121094 205.109375 154.121094 205.710938 153.78125 206.136719 L 146.261719 214.59375 L 153.867188 222.964844 C 154.292969 223.390625 154.207031 224.074219 153.78125 224.417969 C 153.609375 224.585938 153.355469 224.671875 153.097656 224.671875 C 152.839844 224.671875 152.5 224.585938 152.328125 224.332031 L 144.894531 216.128906 L 137.460938 224.332031 C 137.289062 224.585938 136.949219 224.671875 136.691406 224.671875 C 136.433594 224.671875 136.179688 224.585938 136.007812 224.417969 C 135.496094 223.988281 135.496094 223.304688 135.835938 222.878906 Z M 194.96875 214.59375 C 194.96875 213.996094 195.480469 213.566406 195.992188 213.566406 L 212.398438 213.566406 C 212.996094 213.566406 213.425781 214.082031 213.425781 214.59375 C 213.425781 215.191406 212.910156 215.617188 212.398438 215.617188 L 195.992188 215.617188 C 195.394531 215.617188 194.96875 215.105469 194.96875 214.59375 Z M 166.171875 221.855469 L 167.878906 221.855469 L 167.878906 223.5625 C 167.878906 224.160156 168.390625 224.585938 168.90625 224.585938 L 182.832031 224.585938 C 183.429688 224.585938 183.859375 224.074219 183.859375 223.5625 L 183.859375 208.273438 C 183.859375 207.671875 183.347656 207.246094 182.832031 207.246094 L 181.125 207.246094 L 181.125 205.539062 C 181.125 204.941406 180.613281 204.511719 180.097656 204.511719 L 166.171875 204.511719 C 165.574219 204.511719 165.144531 205.027344 165.144531 205.539062 L 165.144531 220.828125 C 165.144531 221.425781 165.574219 221.855469 166.171875 221.855469 Z M 181.808594 209.296875 L 181.808594 222.539062 L 170.015625 222.539062 L 170.015625 221.855469 L 180.097656 221.855469 C 180.695312 221.855469 181.125 221.339844 181.125 220.828125 L 181.125 209.296875 Z M 167.195312 206.5625 L 178.988281 206.5625 L 178.988281 219.804688 L 167.195312 219.804688 Z M 151.988281 610.953125 C 151.816406 611.296875 151.386719 611.550781 151.046875 611.550781 C 150.875 611.550781 150.703125 611.550781 150.535156 611.464844 L 136.09375 604.289062 C 135.75 604.121094 135.496094 603.777344 135.496094 603.351562 C 135.496094 602.925781 135.75 602.582031 136.09375 602.410156 L 150.535156 595.234375 C 151.046875 594.980469 151.644531 595.152344 151.988281 595.75 C 152.242188 596.261719 152.070312 596.859375 151.472656 597.199219 L 138.914062 603.4375 L 151.472656 609.671875 C 152.070312 609.757812 152.242188 610.441406 151.988281 610.953125 Z M 658.183594 595.578125 C 658.441406 595.066406 659.039062 594.808594 659.636719 595.066406 L 674.078125 602.242188 C 674.417969 602.410156 674.675781 602.753906 674.675781 603.179688 C 674.675781 603.609375 674.417969 603.949219 674.078125 604.121094 L 659.636719 611.296875 C 659.464844 611.382812 659.296875 611.382812 659.125 611.382812 C 658.695312 611.382812 658.355469 611.125 658.183594 610.78125 C 657.929688 610.269531 658.097656 609.671875 658.695312 609.332031 L 671.257812 603.09375 L 658.695312 596.859375 C 658.183594 596.773438 657.929688 596.089844 658.183594 595.578125 Z M 658.183594 595.578125 " fill-opacity="1" fill-rule="nonzero"/></g></svg>