<svg xmlns="http://www.w3.org/2000/svg" xmlns:xlink="http://www.w3.org/1999/xlink" width="1080" zoomAndPan="magnify" viewBox="0 0 810 809.999993" height="1080" preserveAspectRatio="xMidYMid meet" version="1.0"><defs><clipPath id="9e48dcc5aa"><path d="M 235 279.359375 L 575 279.359375 L 575 530 L 235 530 Z M 235 279.359375 " clip-rule="nonzero"/></clipPath></defs><g clip-path="url(#9e48dcc5aa)"><path fill="#000000" d="M 527.371094 306.671875 C 498.042969 283.074219 451.644531 279.082031 449.671875 278.910156 C 446.574219 278.648438 443.632812 280.40625 442.371094 283.242188 C 442.277344 283.429688 441.261719 285.753906 440.136719 289.378906 C 459.53125 292.644531 483.363281 299.242188 504.929688 312.636719 C 508.378906 314.78125 509.441406 319.328125 507.300781 322.796875 C 505.914062 325.046875 503.496094 326.28125 501.03125 326.28125 C 499.707031 326.28125 498.367188 325.925781 497.148438 325.167969 C 460.085938 302.171875 413.777344 301.015625 404.875 301.015625 C 395.972656 301.015625 349.648438 302.171875 312.617188 325.167969 C 309.152344 327.328125 304.621094 326.25 302.464844 322.796875 C 300.308594 319.328125 301.386719 314.796875 304.835938 312.636719 C 326.402344 299.257812 350.21875 292.644531 369.628906 289.378906 C 368.488281 285.742188 367.472656 283.429688 367.394531 283.242188 C 366.117188 280.40625 363.191406 278.617188 360.078125 278.925781 C 358.121094 279.082031 311.722656 283.074219 281.992188 307.011719 C 266.464844 321.363281 235.425781 405.339844 235.425781 477.9375 C 235.425781 479.21875 235.765625 480.480469 236.394531 481.59375 C 257.824219 519.25 316.269531 529.113281 329.59375 529.546875 C 329.671875 529.546875 329.746094 529.546875 329.824219 529.546875 C 332.179688 529.546875 334.398438 528.421875 335.785156 526.507812 L 349.265625 507.980469 C 312.925781 498.578125 294.363281 482.625 293.285156 481.683594 C 290.234375 478.988281 289.941406 474.332031 292.636719 471.28125 C 295.332031 468.226562 299.96875 467.933594 303.019531 470.617188 C 303.46875 471.019531 337.648438 500.042969 404.875 500.042969 C 472.222656 500.042969 506.40625 470.894531 506.746094 470.601562 C 509.796875 467.949219 514.449219 468.226562 517.128906 471.296875 C 519.808594 474.347656 519.515625 478.988281 516.480469 481.667969 C 515.402344 482.625 496.839844 498.5625 460.5 507.964844 L 473.980469 526.492188 C 475.367188 528.40625 477.585938 529.53125 479.941406 529.53125 C 480.019531 529.53125 480.097656 529.53125 480.171875 529.53125 C 493.496094 529.113281 551.941406 519.25 573.371094 481.578125 C 573.988281 480.46875 574.324219 479.21875 574.324219 477.9375 C 574.324219 405.339844 543.285156 321.363281 527.371094 306.671875 Z M 356.980469 448.453125 C 342.75 448.453125 331.195312 435.242188 331.195312 418.964844 C 331.195312 402.6875 342.734375 389.476562 356.980469 389.476562 C 371.230469 389.476562 382.769531 402.6875 382.769531 418.964844 C 382.769531 435.242188 371.230469 448.453125 356.980469 448.453125 Z M 452.769531 448.453125 C 438.535156 448.453125 426.980469 435.242188 426.980469 418.964844 C 426.980469 402.6875 438.519531 389.476562 452.769531 389.476562 C 467 389.476562 478.554688 402.6875 478.554688 418.964844 C 478.554688 435.242188 467 448.453125 452.769531 448.453125 Z M 452.769531 448.453125 " fill-opacity="1" fill-rule="nonzero"/></g></svg>