<svg xmlns="http://www.w3.org/2000/svg" xmlns:xlink="http://www.w3.org/1999/xlink" width="1080" zoomAndPan="magnify" viewBox="0 0 810 809.999993" height="1080" preserveAspectRatio="xMidYMid meet" version="1.0"><defs><clipPath id="a07c65483b"><path d="M 198.5625 184.105469 L 611.0625 184.105469 L 611.0625 625.855469 L 198.5625 625.855469 Z M 198.5625 184.105469 " clip-rule="nonzero"/></clipPath></defs><g clip-path="url(#a07c65483b)"><path fill="#ff6000" d="M 404.699219 259.507812 C 367.6875 259.945312 332.957031 274.714844 306.898438 301.078125 C 280.828125 327.460938 266.472656 362.433594 266.472656 399.535156 C 266.472656 441.53125 285.0625 480.945312 317.488281 507.667969 C 327.71875 516.105469 333.585938 528.609375 333.585938 541.992188 L 333.585938 576.953125 C 333.585938 603.785156 355.40625 625.617188 382.214844 625.617188 L 430.589844 625.617188 C 457.398438 625.617188 479.214844 603.785156 479.214844 576.953125 L 479.214844 541.992188 C 479.214844 528.644531 485.164062 516.070312 495.535156 507.484375 C 528.449219 480.242188 546.960938 440.101562 546.3125 397.359375 C 545.144531 320.421875 481.628906 258.566406 404.699219 259.507812 Z M 430.589844 606.292969 L 382.214844 606.292969 C 367.617188 606.292969 355.484375 595.566406 353.253906 581.578125 L 459.546875 581.578125 C 457.320312 595.574219 445.1875 606.292969 430.589844 606.292969 Z M 459.917969 562.261719 L 352.886719 562.261719 L 352.886719 551.640625 L 459.917969 551.640625 Z M 483.234375 492.59375 C 470.945312 502.769531 463.003906 516.898438 460.652344 532.324219 L 352.148438 532.324219 C 349.816406 516.871094 341.957031 502.804688 329.761719 492.753906 C 301.8125 469.714844 285.785156 435.734375 285.785156 399.527344 C 285.785156 333.75 339.238281 279.601562 404.9375 278.8125 C 405.429688 278.804688 405.910156 278.804688 406.402344 278.804688 C 472.050781 278.804688 526.027344 331.816406 527.027344 397.648438 C 527.574219 434.5 511.613281 469.101562 483.234375 492.59375 Z M 396.75 230.039062 L 396.75 194.007812 C 396.75 188.671875 401.066406 184.351562 406.402344 184.351562 C 411.734375 184.351562 416.050781 188.671875 416.050781 194.007812 L 416.050781 230.039062 C 416.050781 235.378906 411.734375 239.699219 406.402344 239.699219 C 401.066406 239.699219 396.75 235.378906 396.75 230.039062 Z M 478.121094 247.539062 L 496.121094 216.335938 C 498.789062 211.71875 504.691406 210.136719 509.308594 212.796875 C 513.921875 215.464844 515.5 221.375 512.84375 225.992188 L 494.839844 257.195312 C 493.050781 260.296875 489.804688 262.027344 486.472656 262.027344 C 484.832031 262.027344 483.171875 261.605469 481.65625 260.726562 C 477.039062 258.066406 475.460938 252.15625 478.121094 247.539062 Z M 580.683594 302.125 L 549.503906 320.140625 C 547.988281 321.019531 546.328125 321.441406 544.6875 321.441406 C 541.355469 321.441406 538.109375 319.710938 536.320312 316.609375 C 533.652344 311.992188 535.238281 306.082031 539.855469 303.414062 L 571.03125 285.398438 C 575.65625 282.730469 581.550781 284.316406 584.21875 288.9375 C 586.875 293.546875 585.296875 299.453125 580.683594 302.125 Z M 611.054688 392.347656 C 611.054688 397.683594 606.738281 402.003906 601.40625 402.003906 L 565.402344 402.003906 C 560.066406 402.003906 555.75 397.683594 555.75 392.347656 C 555.75 387.007812 560.066406 382.6875 565.402344 382.6875 L 601.40625 382.6875 C 606.730469 382.6875 611.054688 387.007812 611.054688 392.347656 Z M 299.539062 224.394531 C 296.871094 219.777344 298.460938 213.867188 303.074219 211.199219 C 307.6875 208.53125 313.59375 210.121094 316.261719 214.738281 L 334.261719 245.941406 C 336.929688 250.558594 335.339844 256.46875 330.726562 259.136719 C 329.210938 260.015625 327.550781 260.4375 325.910156 260.4375 C 322.578125 260.4375 319.332031 258.707031 317.542969 255.609375 Z M 266.535156 318.675781 C 264.894531 318.675781 263.238281 318.253906 261.71875 317.375 L 230.539062 299.359375 C 225.925781 296.6875 224.347656 290.78125 227.003906 286.160156 C 229.671875 281.542969 235.578125 279.964844 240.191406 282.625 L 271.371094 300.640625 C 275.984375 303.308594 277.5625 309.21875 274.90625 313.835938 C 273.117188 316.945312 269.871094 318.675781 266.535156 318.675781 Z M 253.886719 389.160156 C 253.886719 394.496094 249.570312 398.816406 244.234375 398.816406 L 208.230469 398.816406 C 202.898438 398.816406 198.582031 394.496094 198.582031 389.160156 C 198.582031 383.820312 202.898438 379.5 208.230469 379.5 L 244.234375 379.5 C 249.558594 379.5 253.886719 383.828125 253.886719 389.160156 Z M 253.886719 389.160156 " fill-opacity="1" fill-rule="nonzero"/></g></svg>