<svg xmlns="http://www.w3.org/2000/svg" xmlns:xlink="http://www.w3.org/1999/xlink" width="1080" zoomAndPan="magnify" viewBox="0 0 810 809.999993" height="1080" preserveAspectRatio="xMidYMid meet" version="1.0"><defs><clipPath id="5aca9a3a40"><path d="M 198.617188 198.617188 L 611 198.617188 L 611 611.117188 L 198.617188 611.117188 Z M 198.617188 198.617188 " clip-rule="nonzero"/></clipPath></defs><g clip-path="url(#5aca9a3a40)"><path fill="#ff6000" d="M 604.433594 611.085938 L 205.332031 611.085938 C 201.71875 611.085938 198.789062 608.15625 198.789062 604.542969 L 198.789062 567.261719 C 198.789062 505.234375 249.253906 454.769531 311.28125 454.769531 L 498.484375 454.769531 C 560.511719 454.769531 610.976562 505.234375 610.976562 567.261719 L 610.976562 604.542969 C 610.976562 608.15625 608.046875 611.085938 604.433594 611.085938 Z M 404.882812 437.179688 C 339.109375 437.179688 285.601562 383.671875 285.601562 317.898438 C 285.601562 252.125 339.109375 198.617188 404.882812 198.617188 C 470.65625 198.617188 524.164062 252.125 524.164062 317.898438 C 524.164062 383.671875 470.65625 437.179688 404.882812 437.179688 Z M 404.882812 437.179688 " fill-opacity="1" fill-rule="nonzero"/></g></svg>