<svg xmlns="http://www.w3.org/2000/svg" xmlns:xlink="http://www.w3.org/1999/xlink" width="1080" zoomAndPan="magnify" viewBox="0 0 810 809.999993" height="1080" preserveAspectRatio="xMidYMid meet" version="1.0"><defs><g/><clipPath id="4be6a742fd"><path d="M 118.636719 232.507812 L 691.363281 232.507812 L 691.363281 590.960938 L 118.636719 590.960938 Z M 118.636719 232.507812 " clip-rule="nonzero"/></clipPath><clipPath id="f55206cdb6"><path d="M 117.601562 189.167969 L 692.574219 189.167969 L 692.574219 620.832031 L 117.601562 620.832031 Z M 117.601562 189.167969 " clip-rule="nonzero"/></clipPath></defs><path fill="#0f1819" d="M 646.976562 619.792969 L 311.734375 619.792969 L 311.734375 591.042969 L 646.976562 591.042969 Z M 163.023438 590.957031 L 118.636719 590.957031 L 118.636719 619.707031 L 162.9375 619.707031 Z M 691.535156 590.957031 L 646.976562 590.957031 L 646.976562 619.707031 L 691.535156 619.707031 Z M 691.535156 590.957031 " fill-opacity="1" fill-rule="nonzero"/><path fill="#0f1819" d="M 311.734375 619.792969 L 163.023438 619.792969 L 163.023438 591.042969 L 311.820312 591.042969 Z M 691.535156 190.207031 L 118.636719 190.207031 L 118.636719 232.507812 L 691.535156 232.507812 Z M 691.535156 190.207031 " fill-opacity="1" fill-rule="nonzero"/><g clip-path="url(#4be6a742fd)"><path fill="#1b232b" d="M 117.601562 189.167969 L 692.574219 189.167969 L 692.574219 620.832031 L 117.601562 620.832031 Z M 117.601562 189.167969 " fill-opacity="1" fill-rule="nonzero"/></g><g clip-path="url(#f55206cdb6)"><path fill="#00b9ff" d="M 691.535156 189.171875 L 118.636719 189.171875 C 118.117188 189.171875 117.601562 189.6875 117.601562 190.207031 L 117.601562 619.707031 C 117.601562 620.3125 118.117188 620.742188 118.636719 620.742188 L 691.535156 620.742188 C 692.140625 620.742188 692.574219 620.226562 692.574219 619.707031 L 692.574219 190.207031 C 692.574219 189.6875 692.140625 189.171875 691.535156 189.171875 Z M 646.976562 589.921875 L 119.757812 589.921875 L 119.757812 233.546875 L 690.5 233.546875 L 690.5 589.921875 Z M 690.5 191.328125 L 690.5 231.472656 L 119.757812 231.472656 L 119.757812 191.328125 Z M 119.757812 592.082031 L 161.988281 592.082031 L 161.988281 618.757812 L 119.757812 618.757812 Z M 164.0625 618.671875 L 164.0625 591.996094 L 310.695312 591.996094 L 310.695312 618.671875 Z M 312.855469 618.671875 L 312.855469 591.996094 L 645.9375 591.996094 L 645.9375 618.671875 Z M 690.5 618.671875 L 648.097656 618.671875 L 648.097656 591.996094 L 690.5 591.996094 Z M 132.972656 220.941406 L 140.65625 212.480469 L 132.972656 204.019531 C 132.539062 203.589844 132.625 202.898438 133.058594 202.550781 C 133.488281 202.121094 134.179688 202.207031 134.527344 202.636719 L 142.039062 210.925781 L 149.554688 202.636719 C 149.984375 202.207031 150.589844 202.207031 151.019531 202.550781 C 151.453125 202.984375 151.453125 203.589844 151.105469 204.019531 L 143.507812 212.566406 L 151.195312 221.027344 C 151.625 221.457031 151.539062 222.148438 151.105469 222.496094 C 150.933594 222.667969 150.675781 222.753906 150.417969 222.753906 C 150.15625 222.753906 149.8125 222.667969 149.640625 222.410156 L 142.125 214.121094 L 134.613281 222.410156 C 134.441406 222.667969 134.09375 222.753906 133.835938 222.753906 C 133.578125 222.753906 133.316406 222.667969 133.144531 222.496094 C 132.625 222.0625 132.625 221.371094 132.972656 220.941406 Z M 192.730469 212.566406 C 192.730469 211.960938 193.25 211.53125 193.769531 211.53125 L 210.347656 211.53125 C 210.953125 211.53125 211.386719 212.046875 211.386719 212.566406 C 211.386719 213.171875 210.867188 213.601562 210.347656 213.601562 L 193.769531 213.601562 C 193.164062 213.601562 192.730469 213.085938 192.730469 212.566406 Z M 163.628906 219.90625 L 165.355469 219.90625 L 165.355469 221.632812 C 165.355469 222.234375 165.875 222.667969 166.394531 222.667969 L 180.46875 222.667969 C 181.074219 222.667969 181.503906 222.148438 181.503906 221.632812 L 181.503906 206.179688 C 181.503906 205.574219 180.988281 205.140625 180.46875 205.140625 L 178.742188 205.140625 L 178.742188 203.414062 C 178.742188 202.8125 178.222656 202.378906 177.707031 202.378906 L 163.628906 202.378906 C 163.023438 202.378906 162.59375 202.898438 162.59375 203.414062 L 162.59375 218.867188 C 162.59375 219.472656 163.023438 219.90625 163.628906 219.90625 Z M 179.433594 207.214844 L 179.433594 220.59375 L 167.515625 220.59375 L 167.515625 219.90625 L 177.707031 219.90625 C 178.308594 219.90625 178.742188 219.386719 178.742188 218.867188 L 178.742188 207.214844 Z M 164.664062 204.453125 L 176.582031 204.453125 L 176.582031 217.832031 L 164.664062 217.832031 Z M 149.292969 613.144531 C 149.121094 613.492188 148.6875 613.75 148.34375 613.75 C 148.171875 613.75 148 613.75 147.824219 613.664062 L 133.230469 606.410156 C 132.886719 606.238281 132.625 605.894531 132.625 605.460938 C 132.625 605.03125 132.886719 604.683594 133.230469 604.511719 L 147.824219 597.261719 C 148.34375 597 148.949219 597.175781 149.292969 597.777344 C 149.554688 598.296875 149.378906 598.902344 148.777344 599.246094 L 136.082031 605.546875 L 148.777344 611.851562 C 149.378906 611.9375 149.554688 612.628906 149.292969 613.144531 Z M 660.878906 597.605469 C 661.136719 597.089844 661.742188 596.828125 662.347656 597.089844 L 676.941406 604.339844 C 677.285156 604.511719 677.546875 604.859375 677.546875 605.289062 C 677.546875 605.722656 677.285156 606.066406 676.941406 606.238281 L 662.347656 613.492188 C 662.175781 613.578125 662 613.578125 661.828125 613.578125 C 661.398438 613.578125 661.050781 613.320312 660.878906 612.972656 C 660.621094 612.457031 660.792969 611.851562 661.398438 611.503906 L 674.089844 605.203125 L 661.398438 598.902344 C 660.878906 598.816406 660.621094 598.125 660.878906 597.605469 Z M 660.878906 597.605469 " fill-opacity="1" fill-rule="nonzero"/></g><g fill="#ffffff" fill-opacity="1"><g transform="translate(318.999215, 339.570499)"><g><path d="M 28.984375 -25.078125 C 28.984375 -28.421875 28.703125 -31.144531 28.140625 -33.25 C 27.578125 -35.351562 26.800781 -36.976562 25.8125 -38.125 C 24.820312 -39.269531 23.65625 -40.054688 22.3125 -40.484375 C 20.976562 -40.910156 19.535156 -41.125 17.984375 -41.125 L 15.484375 -41.125 L 15.484375 -8.484375 L 17.984375 -8.484375 C 19.609375 -8.484375 21.09375 -8.738281 22.4375 -9.25 C 23.789062 -9.769531 24.957031 -10.644531 25.9375 -11.875 C 26.914062 -13.101562 27.664062 -14.789062 28.1875 -16.9375 C 28.71875 -19.09375 28.984375 -21.804688 28.984375 -25.078125 Z M 41.171875 -25.078125 C 41.171875 -20.035156 40.503906 -15.878906 39.171875 -12.609375 C 37.847656 -9.335938 36.050781 -6.785156 33.78125 -4.953125 C 31.507812 -3.128906 28.9375 -1.847656 26.0625 -1.109375 C 23.1875 -0.367188 20.207031 0 17.125 0 L 3.71875 0 L 3.71875 -49.65625 L 16.265625 -49.65625 C 19.441406 -49.65625 22.515625 -49.328125 25.484375 -48.671875 C 28.460938 -48.015625 31.128906 -46.804688 33.484375 -45.046875 C 35.835938 -43.296875 37.707031 -40.8125 39.09375 -37.59375 C 40.476562 -34.382812 41.171875 -30.210938 41.171875 -25.078125 Z M 41.171875 -25.078125 "/></g></g></g><g fill="#ffffff" fill-opacity="1"><g transform="translate(361.992804, 339.570499)"><g><path d="M 28.65625 -10.71875 L 14.109375 -10.71875 L 11.5 0 L -0.78125 0 L 14.40625 -49.65625 L 28.65625 -49.65625 L 43.859375 0 L 31.28125 0 Z M 15.984375 -19.234375 L 26.734375 -19.234375 L 21.359375 -41.203125 Z M 15.984375 -19.234375 "/></g></g></g><g fill="#ffffff" fill-opacity="1"><g transform="translate(404.986393, 339.570499)"><g><path d="M 27.296875 -40.671875 L 27.296875 0 L 15.546875 0 L 15.546875 -40.671875 L 1.609375 -40.671875 L 1.609375 -49.65625 L 41.8125 -49.65625 L 40.59375 -40.671875 Z M 27.296875 -40.671875 "/></g></g></g><g fill="#ffffff" fill-opacity="1"><g transform="translate(447.979982, 339.570499)"><g><path d="M 18.421875 -41.28125 L 18.421875 -29.34375 L 35.609375 -29.34375 L 35.609375 -21.109375 L 18.421875 -21.109375 L 18.421875 -8.421875 L 39.15625 -8.421875 L 39.15625 0 L 6.65625 0 L 6.65625 -49.65625 L 39.125 -49.65625 L 37.9375 -41.28125 Z M 18.421875 -41.28125 "/></g></g></g><g fill="#ffffff" fill-opacity="1"><g transform="translate(265.668681, 453.372683)"><g><path d="M 15.484375 0.625 C 13.273438 0.625 11.378906 0.203125 9.796875 -0.640625 C 8.210938 -1.484375 6.90625 -2.695312 5.875 -4.28125 C 4.84375 -5.863281 4.085938 -7.804688 3.609375 -10.109375 C 3.128906 -12.410156 2.890625 -15.039062 2.890625 -18 C 2.890625 -20.925781 3.128906 -23.550781 3.609375 -25.875 C 4.085938 -28.195312 4.84375 -30.148438 5.875 -31.734375 C 6.90625 -33.316406 8.210938 -34.523438 9.796875 -35.359375 C 11.378906 -36.203125 13.273438 -36.625 15.484375 -36.625 C 17.679688 -36.625 19.570312 -36.203125 21.15625 -35.359375 C 22.738281 -34.523438 24.046875 -33.316406 25.078125 -31.734375 C 26.109375 -30.148438 26.863281 -28.195312 27.34375 -25.875 C 27.820312 -23.550781 28.0625 -20.925781 28.0625 -18 C 28.0625 -15.039062 27.820312 -12.410156 27.34375 -10.109375 C 26.863281 -7.804688 26.109375 -5.863281 25.078125 -4.28125 C 24.046875 -2.695312 22.738281 -1.484375 21.15625 -0.640625 C 19.570312 0.203125 17.679688 0.625 15.484375 0.625 Z M 15.484375 -3.140625 C 16.921875 -3.140625 18.140625 -3.421875 19.140625 -3.984375 C 20.140625 -4.554688 20.960938 -5.359375 21.609375 -6.390625 C 22.265625 -7.429688 22.738281 -8.679688 23.03125 -10.140625 C 23.320312 -11.597656 23.46875 -13.238281 23.46875 -15.0625 L 23.46875 -20.953125 C 23.46875 -22.734375 23.320312 -24.363281 23.03125 -25.84375 C 22.738281 -27.320312 22.265625 -28.578125 21.609375 -29.609375 C 20.960938 -30.640625 20.140625 -31.4375 19.140625 -32 C 18.140625 -32.570312 16.921875 -32.859375 15.484375 -32.859375 C 14.035156 -32.859375 12.8125 -32.570312 11.8125 -32 C 10.8125 -31.4375 9.984375 -30.640625 9.328125 -29.609375 C 8.679688 -28.578125 8.210938 -27.320312 7.921875 -25.84375 C 7.628906 -24.363281 7.484375 -22.734375 7.484375 -20.953125 L 7.484375 -15.0625 C 7.484375 -13.238281 7.628906 -11.597656 7.921875 -10.140625 C 8.210938 -8.679688 8.679688 -7.429688 9.328125 -6.390625 C 9.984375 -5.359375 10.8125 -4.554688 11.8125 -3.984375 C 12.8125 -3.421875 14.035156 -3.140625 15.484375 -3.140625 Z M 15.484375 -3.140625 "/></g></g></g><g fill="#ffffff" fill-opacity="1"><g transform="translate(296.628877, 453.372683)"><g><path d="M 16.671875 0.625 C 12.265625 0.625 8.984375 -0.972656 6.828125 -4.171875 C 4.679688 -7.378906 3.609375 -11.988281 3.609375 -18 C 3.609375 -24.019531 4.679688 -28.628906 6.828125 -31.828125 C 8.984375 -35.023438 12.265625 -36.625 16.671875 -36.625 C 18.316406 -36.625 19.738281 -36.398438 20.9375 -35.953125 C 22.144531 -35.515625 23.175781 -34.914062 24.03125 -34.15625 C 24.894531 -33.394531 25.617188 -32.539062 26.203125 -31.59375 C 26.796875 -30.65625 27.3125 -29.703125 27.75 -28.734375 L 24.046875 -27.03125 C 23.734375 -27.820312 23.367188 -28.570312 22.953125 -29.28125 C 22.546875 -29.988281 22.054688 -30.609375 21.484375 -31.140625 C 20.921875 -31.671875 20.25 -32.085938 19.46875 -32.390625 C 18.695312 -32.703125 17.765625 -32.859375 16.671875 -32.859375 C 13.804688 -32.859375 11.675781 -31.773438 10.28125 -29.609375 C 8.894531 -27.441406 8.203125 -24.554688 8.203125 -20.953125 L 8.203125 -15.0625 C 8.203125 -11.445312 8.894531 -8.554688 10.28125 -6.390625 C 11.675781 -4.222656 13.804688 -3.140625 16.671875 -3.140625 C 17.765625 -3.140625 18.695312 -3.296875 19.46875 -3.609375 C 20.25 -3.921875 20.921875 -4.34375 21.484375 -4.875 C 22.054688 -5.40625 22.546875 -6.023438 22.953125 -6.734375 C 23.367188 -7.441406 23.734375 -8.191406 24.046875 -8.984375 L 27.75 -7.28125 C 27.3125 -6.28125 26.796875 -5.316406 26.203125 -4.390625 C 25.617188 -3.460938 24.894531 -2.617188 24.03125 -1.859375 C 23.175781 -1.097656 22.144531 -0.492188 20.9375 -0.046875 C 19.738281 0.398438 18.316406 0.625 16.671875 0.625 Z M 16.671875 0.625 "/></g></g></g><g fill="#ffffff" fill-opacity="1"><g transform="translate(327.589072, 453.372683)"><g><path d="M 17.640625 -32.25 L 17.640625 0 L 13.3125 0 L 13.3125 -32.25 L 1.296875 -32.25 L 1.296875 -36.015625 L 29.671875 -36.015625 L 29.671875 -32.25 Z M 17.640625 -32.25 "/></g></g></g><g fill="#ffffff" fill-opacity="1"><g transform="translate(358.549268, 453.372683)"><g><path d="M 15.484375 0.625 C 13.273438 0.625 11.378906 0.203125 9.796875 -0.640625 C 8.210938 -1.484375 6.90625 -2.695312 5.875 -4.28125 C 4.84375 -5.863281 4.085938 -7.804688 3.609375 -10.109375 C 3.128906 -12.410156 2.890625 -15.039062 2.890625 -18 C 2.890625 -20.925781 3.128906 -23.550781 3.609375 -25.875 C 4.085938 -28.195312 4.84375 -30.148438 5.875 -31.734375 C 6.90625 -33.316406 8.210938 -34.523438 9.796875 -35.359375 C 11.378906 -36.203125 13.273438 -36.625 15.484375 -36.625 C 17.679688 -36.625 19.570312 -36.203125 21.15625 -35.359375 C 22.738281 -34.523438 24.046875 -33.316406 25.078125 -31.734375 C 26.109375 -30.148438 26.863281 -28.195312 27.34375 -25.875 C 27.820312 -23.550781 28.0625 -20.925781 28.0625 -18 C 28.0625 -15.039062 27.820312 -12.410156 27.34375 -10.109375 C 26.863281 -7.804688 26.109375 -5.863281 25.078125 -4.28125 C 24.046875 -2.695312 22.738281 -1.484375 21.15625 -0.640625 C 19.570312 0.203125 17.679688 0.625 15.484375 0.625 Z M 15.484375 -3.140625 C 16.921875 -3.140625 18.140625 -3.421875 19.140625 -3.984375 C 20.140625 -4.554688 20.960938 -5.359375 21.609375 -6.390625 C 22.265625 -7.429688 22.738281 -8.679688 23.03125 -10.140625 C 23.320312 -11.597656 23.46875 -13.238281 23.46875 -15.0625 L 23.46875 -20.953125 C 23.46875 -22.734375 23.320312 -24.363281 23.03125 -25.84375 C 22.738281 -27.320312 22.265625 -28.578125 21.609375 -29.609375 C 20.960938 -30.640625 20.140625 -31.4375 19.140625 -32 C 18.140625 -32.570312 16.921875 -32.859375 15.484375 -32.859375 C 14.035156 -32.859375 12.8125 -32.570312 11.8125 -32 C 10.8125 -31.4375 9.984375 -30.640625 9.328125 -29.609375 C 8.679688 -28.578125 8.210938 -27.320312 7.921875 -25.84375 C 7.628906 -24.363281 7.484375 -22.734375 7.484375 -20.953125 L 7.484375 -15.0625 C 7.484375 -13.238281 7.628906 -11.597656 7.921875 -10.140625 C 8.210938 -8.679688 8.679688 -7.429688 9.328125 -6.390625 C 9.984375 -5.359375 10.8125 -4.554688 11.8125 -3.984375 C 12.8125 -3.421875 14.035156 -3.140625 15.484375 -3.140625 Z M 15.484375 -3.140625 "/></g></g></g><g fill="#ffffff" fill-opacity="1"><g transform="translate(389.509463, 453.372683)"><g><path d="M 4.546875 -36.015625 L 16.765625 -36.015625 C 19.859375 -36.015625 22.28125 -35.171875 24.03125 -33.484375 C 25.789062 -31.796875 26.671875 -29.539062 26.671875 -26.71875 C 26.671875 -24.550781 26.144531 -22.847656 25.09375 -21.609375 C 24.050781 -20.378906 22.703125 -19.503906 21.046875 -18.984375 L 21.046875 -18.828125 C 23.078125 -18.347656 24.742188 -17.445312 26.046875 -16.125 C 27.359375 -14.800781 28.015625 -12.882812 28.015625 -10.375 C 28.015625 -8.925781 27.773438 -7.566406 27.296875 -6.296875 C 26.816406 -5.023438 26.132812 -3.921875 25.25 -2.984375 C 24.375 -2.054688 23.34375 -1.328125 22.15625 -0.796875 C 20.96875 -0.265625 19.6875 0 18.3125 0 L 4.546875 0 Z M 17.03125 -3.765625 C 19.019531 -3.765625 20.582031 -4.210938 21.71875 -5.109375 C 22.851562 -6.003906 23.421875 -7.378906 23.421875 -9.234375 L 23.421875 -11.34375 C 23.421875 -13.164062 22.851562 -14.53125 21.71875 -15.4375 C 20.582031 -16.351562 19.019531 -16.8125 17.03125 -16.8125 L 8.875 -16.8125 L 8.875 -3.765625 Z M 16.296875 -20.375 C 18.117188 -20.375 19.546875 -20.773438 20.578125 -21.578125 C 21.617188 -22.390625 22.140625 -23.625 22.140625 -25.28125 L 22.140625 -27.296875 C 22.140625 -28.941406 21.617188 -30.175781 20.578125 -31 C 19.546875 -31.832031 18.117188 -32.25 16.296875 -32.25 L 8.875 -32.25 L 8.875 -20.375 Z M 16.296875 -20.375 "/></g></g></g><g fill="#ffffff" fill-opacity="1"><g transform="translate(420.469658, 453.372683)"><g><path d="M 4.640625 0 L 4.640625 -36.015625 L 26.828125 -36.015625 L 26.828125 -32.25 L 8.984375 -32.25 L 8.984375 -20.125 L 26.203125 -20.125 L 26.203125 -16.359375 L 8.984375 -16.359375 L 8.984375 -3.765625 L 26.828125 -3.765625 L 26.828125 0 Z M 4.640625 0 "/></g></g></g><g fill="#ffffff" fill-opacity="1"><g transform="translate(451.429854, 453.372683)"><g><path d="M 8.984375 0 L 4.640625 0 L 4.640625 -36.015625 L 17.75 -36.015625 C 21.082031 -36.015625 23.625 -35.101562 25.375 -33.28125 C 27.132812 -31.457031 28.015625 -28.910156 28.015625 -25.640625 C 28.015625 -22.710938 27.253906 -20.375 25.734375 -18.625 C 24.222656 -16.875 22.023438 -15.859375 19.140625 -15.578125 L 28.328125 0 L 23.46875 0 L 14.703125 -15.375 L 8.984375 -15.375 Z M 17.640625 -19.03125 C 19.460938 -19.03125 20.878906 -19.484375 21.890625 -20.390625 C 22.910156 -21.304688 23.421875 -22.609375 23.421875 -24.296875 L 23.421875 -26.984375 C 23.421875 -28.671875 22.910156 -29.96875 21.890625 -30.875 C 20.878906 -31.789062 19.460938 -32.25 17.640625 -32.25 L 8.984375 -32.25 L 8.984375 -19.03125 Z M 17.640625 -19.03125 "/></g></g></g><g fill="#ffffff" fill-opacity="1"><g transform="translate(482.390049, 453.372683)"><g/></g></g><g fill="#ffffff" fill-opacity="1"><g transform="translate(513.350245, 453.372683)"><g><path d="M 4.390625 0 L 4.390625 -3.765625 L 14.703125 -3.765625 L 14.703125 -32.8125 L 14.34375 -32.8125 L 5.265625 -24.359375 L 2.734375 -27.09375 L 12.28125 -36.015625 L 19.03125 -36.015625 L 19.03125 -3.765625 L 28.53125 -3.765625 L 28.53125 0 Z M 4.390625 0 "/></g></g></g><g fill="#ffffff" fill-opacity="1"><g transform="translate(281.155537, 524.323311)"><g><path d="M 4.390625 0 L 4.390625 -3.765625 L 14.703125 -3.765625 L 14.703125 -32.8125 L 14.34375 -32.8125 L 5.265625 -24.359375 L 2.734375 -27.09375 L 12.28125 -36.015625 L 19.03125 -36.015625 L 19.03125 -3.765625 L 28.53125 -3.765625 L 28.53125 0 Z M 4.390625 0 "/></g></g></g><g fill="#ffffff" fill-opacity="1"><g transform="translate(312.115733, 524.323311)"><g><path d="M 15.484375 0.625 C 13.273438 0.625 11.378906 0.203125 9.796875 -0.640625 C 8.210938 -1.484375 6.90625 -2.695312 5.875 -4.28125 C 4.84375 -5.863281 4.085938 -7.804688 3.609375 -10.109375 C 3.128906 -12.410156 2.890625 -15.039062 2.890625 -18 C 2.890625 -20.925781 3.128906 -23.550781 3.609375 -25.875 C 4.085938 -28.195312 4.84375 -30.148438 5.875 -31.734375 C 6.90625 -33.316406 8.210938 -34.523438 9.796875 -35.359375 C 11.378906 -36.203125 13.273438 -36.625 15.484375 -36.625 C 17.679688 -36.625 19.570312 -36.203125 21.15625 -35.359375 C 22.738281 -34.523438 24.046875 -33.316406 25.078125 -31.734375 C 26.109375 -30.148438 26.863281 -28.195312 27.34375 -25.875 C 27.820312 -23.550781 28.0625 -20.925781 28.0625 -18 C 28.0625 -15.039062 27.820312 -12.410156 27.34375 -10.109375 C 26.863281 -7.804688 26.109375 -5.863281 25.078125 -4.28125 C 24.046875 -2.695312 22.738281 -1.484375 21.15625 -0.640625 C 19.570312 0.203125 17.679688 0.625 15.484375 0.625 Z M 15.484375 -3.140625 C 16.921875 -3.140625 18.15625 -3.421875 19.1875 -3.984375 C 20.21875 -4.554688 21.050781 -5.359375 21.6875 -6.390625 C 22.332031 -7.429688 22.804688 -8.679688 23.109375 -10.140625 C 23.421875 -11.597656 23.578125 -13.238281 23.578125 -15.0625 L 23.578125 -20.953125 C 23.578125 -22.734375 23.421875 -24.363281 23.109375 -25.84375 C 22.804688 -27.320312 22.332031 -28.578125 21.6875 -29.609375 C 21.050781 -30.640625 20.21875 -31.4375 19.1875 -32 C 18.15625 -32.570312 16.921875 -32.859375 15.484375 -32.859375 C 14.035156 -32.859375 12.796875 -32.570312 11.765625 -32 C 10.734375 -31.4375 9.898438 -30.640625 9.265625 -29.609375 C 8.628906 -28.578125 8.15625 -27.320312 7.84375 -25.84375 C 7.53125 -24.363281 7.375 -22.734375 7.375 -20.953125 L 7.375 -15.0625 C 7.375 -13.238281 7.53125 -11.597656 7.84375 -10.140625 C 8.15625 -8.679688 8.628906 -7.429688 9.265625 -6.390625 C 9.898438 -5.359375 10.734375 -4.554688 11.765625 -3.984375 C 12.796875 -3.421875 14.035156 -3.140625 15.484375 -3.140625 Z M 15.484375 -14.96875 C 14.273438 -14.96875 13.4375 -15.207031 12.96875 -15.6875 C 12.507812 -16.164062 12.28125 -16.75 12.28125 -17.4375 L 12.28125 -18.578125 C 12.28125 -19.265625 12.507812 -19.847656 12.96875 -20.328125 C 13.4375 -20.804688 14.273438 -21.046875 15.484375 -21.046875 C 16.679688 -21.046875 17.507812 -20.804688 17.96875 -20.328125 C 18.4375 -19.847656 18.671875 -19.265625 18.671875 -18.578125 L 18.671875 -17.4375 C 18.671875 -16.75 18.4375 -16.164062 17.96875 -15.6875 C 17.507812 -15.207031 16.679688 -14.96875 15.484375 -14.96875 Z M 15.484375 -14.96875 "/></g></g></g><g fill="#ffffff" fill-opacity="1"><g transform="translate(343.075928, 524.323311)"><g><path d="M 24.8125 0 L 21.765625 -10.265625 L 9.125 -10.265625 L 6.09375 0 L 1.59375 0 L 12.640625 -36.015625 L 18.375 -36.015625 L 29.40625 0 Z M 15.6875 -31.421875 L 15.21875 -31.421875 L 10.15625 -14.03125 L 20.734375 -14.03125 Z M 15.6875 -31.421875 "/></g></g></g><g fill="#ffffff" fill-opacity="1"><g transform="translate(374.036123, 524.323311)"><g><path d="M 23.46875 -18.0625 L 23.46875 -29.453125 L 23.0625 -29.453125 L 15.484375 -10.9375 L 7.890625 -29.453125 L 7.484375 -29.453125 L 7.484375 0 L 3.515625 0 L 3.515625 -36.015625 L 9.078125 -36.015625 L 15.421875 -20.125 L 15.734375 -20.125 L 22.078125 -36.015625 L 27.453125 -36.015625 L 27.453125 0 L 23.46875 0 Z M 23.46875 -18.0625 "/></g></g></g><g fill="#ffffff" fill-opacity="1"><g transform="translate(404.996319, 524.323311)"><g><path d="M 8 -13.515625 L 8 -17.84375 L 22.953125 -17.84375 L 22.953125 -13.515625 Z M 8 -13.515625 "/></g></g></g><g fill="#ffffff" fill-opacity="1"><g transform="translate(435.956514, 524.323311)"><g><path d="M 15.484375 0.625 C 13.378906 0.625 11.535156 0.359375 9.953125 -0.171875 C 8.367188 -0.710938 7.050781 -1.445312 6 -2.375 C 4.957031 -3.300781 4.171875 -4.398438 3.640625 -5.671875 C 3.109375 -6.941406 2.84375 -8.316406 2.84375 -9.796875 C 2.84375 -12.273438 3.507812 -14.234375 4.84375 -15.671875 C 6.1875 -17.117188 7.957031 -18.140625 10.15625 -18.734375 L 10.15625 -19.140625 C 8.238281 -19.796875 6.71875 -20.851562 5.59375 -22.3125 C 4.476562 -23.769531 3.921875 -25.535156 3.921875 -27.609375 C 3.921875 -30.359375 4.9375 -32.546875 6.96875 -34.171875 C 9 -35.804688 11.835938 -36.625 15.484375 -36.625 C 19.128906 -36.625 21.960938 -35.804688 23.984375 -34.171875 C 26.015625 -32.546875 27.03125 -30.359375 27.03125 -27.609375 C 27.03125 -25.535156 26.472656 -23.769531 25.359375 -22.3125 C 24.242188 -20.851562 22.722656 -19.796875 20.796875 -19.140625 L 20.796875 -18.734375 C 22.992188 -18.140625 24.765625 -17.117188 26.109375 -15.671875 C 27.453125 -14.234375 28.125 -12.273438 28.125 -9.796875 C 28.125 -8.316406 27.851562 -6.941406 27.3125 -5.671875 C 26.78125 -4.398438 25.984375 -3.300781 24.921875 -2.375 C 23.859375 -1.445312 22.539062 -0.710938 20.96875 -0.171875 C 19.40625 0.359375 17.578125 0.625 15.484375 0.625 Z M 15.484375 -3.046875 C 18.023438 -3.046875 20.015625 -3.613281 21.453125 -4.75 C 22.898438 -5.882812 23.625 -7.484375 23.625 -9.546875 L 23.625 -10.6875 C 23.625 -12.75 22.910156 -14.347656 21.484375 -15.484375 C 20.054688 -16.617188 18.054688 -17.1875 15.484375 -17.1875 C 12.898438 -17.1875 10.894531 -16.617188 9.46875 -15.484375 C 8.039062 -14.347656 7.328125 -12.75 7.328125 -10.6875 L 7.328125 -9.546875 C 7.328125 -7.484375 8.046875 -5.882812 9.484375 -4.75 C 10.929688 -3.613281 12.929688 -3.046875 15.484375 -3.046875 Z M 15.484375 -20.6875 C 17.816406 -20.6875 19.59375 -21.1875 20.8125 -22.1875 C 22.039062 -23.1875 22.65625 -24.613281 22.65625 -26.46875 L 22.65625 -27.1875 C 22.65625 -29.039062 22.023438 -30.46875 20.765625 -31.46875 C 19.515625 -32.46875 17.753906 -32.96875 15.484375 -32.96875 C 13.210938 -32.96875 11.445312 -32.46875 10.1875 -31.46875 C 8.9375 -30.46875 8.3125 -29.039062 8.3125 -27.1875 L 8.3125 -26.46875 C 8.3125 -24.613281 8.921875 -23.1875 10.140625 -22.1875 C 11.359375 -21.1875 13.140625 -20.6875 15.484375 -20.6875 Z M 15.484375 -20.6875 "/></g></g></g><g fill="#ffffff" fill-opacity="1"><g transform="translate(466.91671, 524.323311)"><g><path d="M 4.640625 0 L 4.640625 -36.015625 L 17.75 -36.015625 C 21.082031 -36.015625 23.625 -35.101562 25.375 -33.28125 C 27.132812 -31.457031 28.015625 -28.910156 28.015625 -25.640625 C 28.015625 -22.367188 27.132812 -19.820312 25.375 -18 C 23.625 -16.175781 21.082031 -15.265625 17.75 -15.265625 L 8.984375 -15.265625 L 8.984375 0 Z M 8.984375 -19.03125 L 17.640625 -19.03125 C 19.460938 -19.03125 20.878906 -19.484375 21.890625 -20.390625 C 22.910156 -21.304688 23.421875 -22.609375 23.421875 -24.296875 L 23.421875 -26.984375 C 23.421875 -28.671875 22.910156 -29.96875 21.890625 -30.875 C 20.878906 -31.789062 19.460938 -32.25 17.640625 -32.25 L 8.984375 -32.25 Z M 8.984375 -19.03125 "/></g></g></g><g fill="#ffffff" fill-opacity="1"><g transform="translate(497.876905, 524.323311)"><g><path d="M 23.46875 -18.0625 L 23.46875 -29.453125 L 23.0625 -29.453125 L 15.484375 -10.9375 L 7.890625 -29.453125 L 7.484375 -29.453125 L 7.484375 0 L 3.515625 0 L 3.515625 -36.015625 L 9.078125 -36.015625 L 15.421875 -20.125 L 15.734375 -20.125 L 22.078125 -36.015625 L 27.453125 -36.015625 L 27.453125 0 L 23.46875 0 Z M 23.46875 -18.0625 "/></g></g></g></svg>